/* XPM */
static char *_edc282383b94dc88b7c0bf381c1f20e[] = {
/* columns rows colors chars-per-pixel */
"64 64 208 2 ",
"   c None",
".  c #0B0C12",
"X  c #1B1B17",
"o  c #252319",
"O  c #2B261B",
"+  c #2F291C",
"@  c #352E1D",
"#  c #3B331F",
"$  c #3F3A1D",
"%  c #292A2F",
"&  c #2A2725",
"*  c #292A30",
"=  c #3C3426",
"-  c #46381F",
";  c #443C23",
":  c #4B3D23",
">  c #403220",
",  c #523F25",
"<  c #4C4324",
"1  c #4B4529",
"2  c #4E4926",
"3  c #524424",
"4  c #5B4925",
"5  c #584F28",
"6  c #5C5427",
"7  c #5C502B",
"8  c #644D2B",
"9  c #675D2E",
"0  c #6B5A2B",
"q  c #675629",
"w  c #605431",
"e  c #7C5F31",
"r  c #765930",
"t  c #75592F",
"y  c #69662A",
"u  c #79662B",
"i  c #656434",
"p  c #7B6131",
"a  c #736D36",
"s  c #766632",
"d  c #7A7038",
"f  c #77722A",
"g  c #946E0B",
"h  c #96700D",
"j  c #98730E",
"k  c #9B7610",
"l  c #9D7A13",
"z  c #A17D15",
"x  c #8C712A",
"c  c #896734",
"v  c #856C33",
"b  c #846133",
"n  c #8E7C33",
"m  c #8B7738",
"M  c #937C36",
"N  c #9F7A39",
"B  c #967237",
"V  c #937A26",
"C  c #7C8141",
"Z  c #9D841C",
"A  c #A58216",
"S  c #A5841A",
"D  c #A9871C",
"F  c #AC8B1E",
"G  c #B18F1D",
"H  c #9E8A25",
"J  c #978726",
"K  c #8B853D",
"L  c #888237",
"P  c #9C8B35",
"I  c #978637",
"U  c #A18B25",
"Y  c #AE8E21",
"T  c #A2842D",
"R  c #A38D2A",
"E  c #AA8C2C",
"W  c #B08F21",
"Q  c #A5932C",
"!  c #B29324",
"~  c #BB9B24",
"^  c #B79A29",
"/  c #BB9E2C",
"(  c #B69827",
")  c #A6893B",
"_  c #A59532",
"`  c #A79C34",
"'  c #A99A35",
"]  c #A4943A",
"[  c #AB973B",
"{  c #AB9C3B",
"}  c #B69D3E",
"|  c #B49839",
" . c #BEA22D",
".. c #BEA233",
"X. c #BBA53C",
"o. c #B9A73A",
"O. c #CDAD25",
"+. c #C4A52B",
"@. c #CDAE2B",
"#. c #C9A72C",
"$. c #CFB12D",
"%. c #D3B42D",
"&. c #D4B428",
"*. c #C3A631",
"=. c #C4AA33",
"-. c #CBAE32",
";. c #C5AC3C",
":. c #C9AF39",
">. c #CBB23A",
",. c #C8B236",
"<. c #D1B532",
"1. c #D4B835",
"2. c #DABB33",
"3. c #D2B63C",
"4. c #D5BC3C",
"5. c #D9BF3C",
"6. c #DCC23D",
"7. c #E4C433",
"8. c #E7CB3D",
"9. c #948F42",
"0. c #9E9444",
"q. c #8E8944",
"w. c #A59946",
"e. c #ADA242",
"r. c #ADA14D",
"t. c #B0A646",
"y. c #B0A748",
"u. c #B2AA4C",
"i. c #B4AE51",
"p. c #BBAF50",
"a. c #B7B255",
"s. c #B1B151",
"d. c #BFBB67",
"f. c #BEBA70",
"g. c #C2AD40",
"h. c #C5AA42",
"j. c #CBB542",
"k. c #CEB944",
"l. c #C6B44A",
"z. c #CBB746",
"x. c #D4BC43",
"c. c #D3BB4B",
"v. c #D3B742",
"b. c #C4BF5F",
"n. c #CAB857",
"m. c #D1BE52",
"M. c #C3BF60",
"N. c #D7C045",
"B. c #DAC446",
"V. c #DEC947",
"C. c #DBC64A",
"Z. c #DDC94B",
"A. c #D7CB4C",
"S. c #CAC55E",
"D. c #DECC52",
"F. c #D7C859",
"G. c #E1C945",
"H. c #E3CC49",
"J. c #E8CC47",
"K. c #E6D04A",
"L. c #E9D24A",
"P. c #E1CF54",
"I. c #E2D155",
"U. c #E9D655",
"Y. c #E3D45B",
"T. c #E6D85F",
"R. c #EBDB5D",
"E. c #EFE05D",
"W. c #C6C161",
"Q. c #CCC663",
"!. c #DAC76B",
"~. c #D9D36E",
"^. c #E1CD67",
"/. c #E7DB62",
"(. c #E9DD65",
"). c #E2D56D",
"_. c #EADE6A",
"`. c #E4D565",
"'. c #E8DB78",
"]. c #EEE265",
"[. c #EBE26B",
"{. c #F1E364",
"}. c #F2E66A",
"|. c #F3EA6E",
" X c #EDE671",
".X c #EFE974",
"XX c #EBE178",
"oX c #EFEB7B",
"OX c #F1EB75",
"+X c #F2EE7B",
"@X c #F7F077",
"#X c #F3F07D",
"$X c #F8F37B",
"%X c #E6E787",
"&X c #E9E986",
"*X c #E6E688",
"=X c #E8E988",
"-X c #E9E588",
";X c #F5ED8D",
":X c #F6F482",
">X c #F7F885",
",X c #FAFA87",
"<X c #F6F58B",
"1X c #F8F98C",
"2X c #F8F78F",
"3X c #F9F994",
"4X c #F7F697",
"5X c #E9EA97",
/* pixels */
"                                                                                                                                ",
"                                                                                                                                ",
"                                                                                                                                ",
"                                                        3X3X3X2X,X1X3X3X3X                                                      ",
"                                                3X1X>X:X,X,X>X,X,X>X>X,X,X>X>X>X2X                                              ",
"                                          2X<X>X:X>X>X,X>X>X>X>X<X>X>X>X>X>X>X<X:X>X>X2X                                        ",
"                                      1X>X>X:X:X>X:X>X:X:X>X:X:X:X:X:X>X>X:X:X<X>X>X:X>X>X<X4X                                  ",
"                                    :X$X:X#X>X>X:X:X:X:X:X:X:X:X:X:X:X:X:X:X:X$X:X#X>X$X>X>X$X                                  ",
"                                                                                                                                ",
"                  &X&X-X=X=X=X&X-X*X*X*X*X*X*X*X*X*X*X*X*X*X*X*X-X-X*X-X*X*X*X*X*X*X*X*X%X-X*X*X*X&X=X5X                        ",
"                >X,X,X,X,X>X,X,X,X,X>X>X,X,X,X,X,X,X,X,X,X,X1X,X,X,X,X,X,X,X>X>X,X>X,X,X,X,X,X>X,X,X,X>X2X                      ",
"              &X>X>X>X>X>X>X>X>X:X>X<X:X>X>X>X:X>X>X:X>X>X>X>X:X>X>X>X>X:X>X<X:X<X>X>X>X<X<X>X>X>X>X:X>X>X2X                    ",
"              $X:X:X:X:X:X:X:X:X:X:X:X:X:X:X:X:X:X:X:X:X:X:X:X:X:X:X:X:X:X:X:X:X:X:X:X:X:X:X:X:X:X:X:X:X:X:X<X                  ",
"            #X>X:X+X:X:X:X:X:X:X+X:X:X:X:X+X:X:X:X:X:X:X:X:X:X#X:X:X+X:X:X:X:X:X:X:X:X:X:X:X+X:X:X:X:X:X:X#X#X:X                ",
"          oX:X:X:X:X:X:X+X:X:X+X:X:X:X:X:X:X:X:X+X:X+X:X:X#X:X#X+X:X+X:X:X:X:X:X+X:X:X:X+X:X+X:X:X:X+X:X:X:X:X$X4X              ",
"        -X+X+X+X+X+X+X:X+X:X+X+X+X+XoX:X+XOX+X:X+X:X+X+X#X#X#X#X+X:X+X:X+X+X+X+X+X#X+X+X+X:X+X:X+X+X+X+X#X+X+X#X+X              ",
"        OX#X+X#X+X+X#X+X+X#X+X+X+X#X#X+X+X+X#X+X+X+X#X+X+X+X#X+X#X+X+X#X#X#X#X#X+X+X+X+X+X+X#X+X+X+X+X:X+X+X#X+X+XOX            ",
"      OX+X+X+X+X+X+X+X+X+X+X+X+X+X+X+X+X+X+X+X+X+X+X+X+X+X+X+X+X+X+X+X+X+XOX+X#X+X+X+X+X+X+X+X+X+X+X+XOX+X+X+X+X+X#XoX          ",
"    +X$X#X$X$X$X$X$X$X#X$X$X$X$X$X$X$X#XoXOXOXOXOXoX.XoXOXoXOX.X$X$X$X$X$X$X$X$X$X$X$X$X$X$X$X$X$X$X#X$X$X$X$X$X$X$X$X          ",
"  f.S.W.b.b.M.b.M.M.M.W.M.M.M.M.M.M.W.Q.OX.XoXOXoX.XOX.XoXOXOXXXM.S.W.W.W.W.W.W.Q.W.M.W.Q.M.M.M.M.Q.M.M.M.M.M.M.b.b.S.d.        ",
"                                        +XOXOX.X.X.X.X.X.XOX$Xa.X                                                               ",
"                                        OX X.X.X.X.X[..X.XOX@Xs.*                                                               ",
"        ;X].[.[.[.].C.V.V.V.C.C.V.V.    [..X[.[..X X.X.X[.[.@Xp.*   $ o O X X o o 6 x.o X L L.L.] . L L.V.V.N.Y.[.[.].[.[.      ",
"        XX(.(.(.[.F.>.B.B.B.B.B.B.C.     X[.[..X[.[.[.[.[..XOXi.*   N.x.o.+ ; z.k.N.j.# o + g.L.[ X I J.B.B.N.>.[.[.(.(./.      ",
"        /.(.(.(.[.;.k.B.B.B.C.B.B.C.    [.[.[.[.[. X[.[.[.[.OXi.*   G.G.j.# 3 B.G.G.j.; @ + s L.[ O P H.B.B.V.=.F.].(./.(.XX    ",
"        T.(./.(.Y.^ B.B.B.B.B.B.B.C.    [.[.[.[.[.[._.[.[.[.|.u.%   V.V.j.: 7 N.C.G.j., p 0 : g.X.# ) H.B.B.V.>.k.[./.}.(./.    ",
"      XX/././.(.N.^ Z.B.B.B.B.B.C.C.    [._._._._.[.[._.(.[.|.u.%   G.V.j.4 0 B.B.B.j.8 m X.3 u } 3 ] H.B.B.B.x.;.[.T.y.S.R.    ",
"      _.Y.T./.]... .Z.B.B.B.B.B.B.C.    (._.(._.(.(._._.[.(.}.u.*   G.V.j.q p B.C.G.k.q M J.M 8 v 8 [ Z.B.B.B.B./ Y.T.w r.E.-X  ",
"      T.T.T././.Y =.V.B.B.B.B.B.B.C.    (.(./.(.(./.(./.(.(.}.u.*   G.V.j.b c x.B.G.k.e N H.k.e r r } G.B.B.B.B.! F./.{.}.E.XX  ",
"      Y.Y.T.Y.Y.S :.V.B.B.B.B.B.B.C.    /././././././.(././.].y.*   G.B.k.c B B.B.B.x.c ) G.G.| b b } G.B.B.B.Z.G c.F.i.w.q.`.  ",
"      Y.Y.Y.T.D.Z >.V.B.B.B.B.B.B.C.    /./././././././././.].y.%   V.V.v.N ) x.B.V.x.N w.G.B.B.) B h.V.B.B.B.Z.F >.n.w.= C [.  ",
"      Y.Y.I.Y.D.l >.C.B.B.B.B.B.B.C.    /.T.T.T./.Y./.Y.`.T.].e.*   G.B.B.B.c.B.B.B.C.x.C.x.C.C.G.x.B.B.B.B.B.Z.W ..Y.7 i 0.Q.  ",
"      Y.Y.Y.Y.A.j >.V.B.B.B.N.B.B.C.    /.Y.Y.`.`.Y./.Y.T.T.(.e.*   G.B.B.B.B.B.B.B.B.B.B.B.B.B.B.C.B.B.B.B.B.Z.F  .n.K w.w.F.  ",
"      Y.D.D.I.C.j =.Z.B.C.B.B.B.B.C.    Y.Y.Y.Y.Y.Y.Y.Y.Y.Y.E.t.*   G.B.B.B.B.B.B.B.B.B.B.B.B.B.B.B.B.B.C.B.B.Z.D  .F.w.w.y.!.  ",
"      I.I.I.I.D.l +.Z.B.B.B.B.B.B.C.    Y.Y.Y.Y.Y.Y.Y.Y.Y.Y.R.e.*   G.B.B.B.B.B.C.B.B.B.B.B.B.B.N.B.B.B.B.B.N.Z.D =.l.d d a S.  ",
"      D.D.D.I.Z.l ( Z.B.B.B.B.C.B.C.    I.Y.I.I.I.I.I.Y.I.I.R.e.*   V.B.B.B.B.B.B.B.B.B.C.B.B.B.C.B.B.B.B.B.B.N.l ;.Y.P 9.I.Y.  ",
"      D.D.P.D.P.D D Z.C.B.B.B.B.B.C.    I.I.I.I.I.Y.I.I.I.I.T.{ *   G.B.B.B.B.B.C.N.B.B.B.B.B.B.B.B.B.B.C.N.Z.4.k x.n a s i `.  ",
"      P.Z.D.Z.I.^ k x.B.B.B.B.B.B.C.    P.P.I.I.I.D.D.D.P.I.U.{ *   V.B.B.C.B.B.B.B.B.B.C.B.N.B.B.B.B.B.B.C.Z.*.k G.w p.L.7 ~.  ",
"      `.Z.Z.Z.I.,.h >.B.N.B.B.B.B.C.    P.P.P.P.D.D.I.D.I.D.Y.{ *   G.B.B.B.B.B.B.B.B.B.B.B.B.B.B.B.B.B.B.N.Z.Y D U.t.1 1 K     ",
"      '.B.Z.Z.Z.N.j ( Z.C.B.B.B.B.C.    D.D.Z.D.Z.D.D.D.Z.P.L.{ *   V.B.B.B.B.B.B.B.B.B.B.B.B.C.B.B.B.B.B.C.N.k / Z.l.C.k.P.    ",
"        B.Z.Z.C.Z.G A A.B.B.B.B.B.C.    Z.Z.D.Z.Z.D.Z.Z.D.Z.K.{ *   G.B.B.B.B.B.B.B.B.B.B.B.B.B.B.C.B.B.B.Z. .g 3.v C ;.] T.    ",
"        D.B.C.C.Z.:.j 3.B.B.B.B.B.C.    Z.D.D.Z.Z.Z.Z.D.Z.Z.I.{ *   V.B.B.B.B.B.B.B.B.B.B.B.B.B.B.B.B.B.B.B.A l v.5 Z.j.2 ).    ",
"        ).N.B.B.B.B.A ! Z.B.B.B.B.C.    Z.C.C.Z.C.Z.V.Z.Z.Z.H.` *   G.B.B.B.C.B.B.B.B.B.B.B.B.B.B.B.B.B.Z.+.g  .H.) 9 9 I       ",
"          6.B.B.B.V.*.h 4.C.B.B.B.C.    B.C.C.C.C.C.C.B.C.C.H.] *   G.B.B.B.B.B.B.B.B.B.B.B.B.C.B.B.B.C.C.l l V.G.G.j.o.`.      ",
"          C.N.N.N.B.4.l Y V.B.B.B.C.    B.B.Z.B.B.V.V.V.B.V.H._ *   G.B.B.B.B.B.B.B.B.B.C.B.B.B.B.B.B.Z.*.g =.h.o.J.G.6.        ",
"            5.6.N.N.B.=.g  .Z.B.B.C.    B.N.B.B.B.B.N.N.B.B.G._ *   G.B.B.B.B.B.B.B.B.B.B.B.B.B.B.B.Z.3.j ! G.3.9 i ,.`.        ",
"            C.5.N.6.N.B.! j v.V.B.C.    N.N.N.N.N.N.B.N.B.x.G.Q *   G.B.B.B.B.B.B.B.B.B.B.B.B.B.B.Z.N.S j 4.I ; 7 O y           ",
"              1.4.6.4.4.6.D S B.B.C.    6.6.N.6.N.5.6.x.6.N.V.Q *   V.B.B.B.B.B.B.B.B.B.B.B.B.B.B.B.S g @.J.:.u 1 ` D.          ",
"              ).<.x.5.4.4.4.k D V.Z.    x.6.N.6.x.N.6.4.N.4.V.Q *   G.B.B.B.B.B.B.B.B.B.B.B.B.Z.Z.( g +.X.L >.J./ _             ",
"                x.1.4.4.4.5.-.z D x.    4.4.4.4.4.4.4.4.4.6.6.Q *   G.B.B.B.B.B.B.C.B.B.B.B.Z.N.! g  .8.T ; < y ..              ",
"                  1.1.5.1.4.4.1.A S     4.4.4.4.4.4.4.4.1.4.6.R *   V.B.B.B.B.B.B.B.B.B.B.Z.x.l g +.' P 2.4 y  .!.              ",
"                    <.1.1.1.4.4.1.!     4.4.5.1.4.1.5.4.1.5.6.R *   V.B.B.B.B.B.B.B.B.B.Z.-.l k -./ + ` 8.x f H.                ",
"                      %.3.<.1.3.<.x.    4.1.1.1.1.1.1.1.1.4.6.U *   G.B.B.B.B.B.B.Z.Z.-.S h F -.:...E 1 ' 2.>.                  ",
"                      !.&.<.<.<.<.c.    3.1.1.1.1.1.3.1.1.1.2.U *   G.B.B.B.Z.Z.C.>.Y j l O.1.+.< o.7.E 6 5.                    ",
"                          <.<.<.<.x.    <.<.<.3.3.<.<.<.<.<.5.H *   K.Z.B.x.:. .D j z ~ +.x y 1.T 6 $.%.x.                      ",
"                            1.$.$.x.    <.<.<.<.<.<.<.<.<.<.2.H *   ~ Y A j h k G +.<.2.E u q 1.2.V Q D.                        ",
"                              v.@.3.    <.%.<.$.$.<.$.<.$.<.2.Z *   A A G ~ +.%.<.<.2.<.%.7.u J &.1.                            ",
"                                  c.    @.%.$.@.$.$.$.$.$.$.2.Z *   %.%.%.%.%.$.$.#.4 Y %.%.~ H C.                              ",
"                                        @.@.$.%.$.$.%.@.$.$.2.Z *   2.$.$.$.@.@.&.+.; U %.O.x.                                  ",
"                                        n.:.@.O.@.@.@.@.@.@.<.Z *   %.O.@.@.@.@.O.O.&.<.3.                                      ",
"                                              ;.-.O.O.O.O.@.%.l %   @.O.O.O.O.O.-.v.                                            ",
"                                                      h.+.-.&.Z     %.<.-.3.c.                                                  ",
"                                                                                                                                ",
"                                                                                                                                "
};
