/* XPM */
static char *b86db02920db4581d433663d08388498[] = {
/* columns rows colors chars-per-pixel */
"32 32 159 2 ",
"   c None",
".  c #262319",
"X  c #3F3A1F",
"o  c #3D3120",
"O  c #484321",
"+  c #595025",
"@  c #74562F",
"#  c #635D35",
"$  c #6A6029",
"%  c #7F6E26",
"&  c #72652F",
"*  c #7D6D2F",
"=  c #7C6730",
"-  c #8A792D",
";  c #837131",
":  c #8C7B34",
">  c #937D35",
",  c #A9871B",
"<  c #AD8B1E",
"1  c #B08E1D",
"2  c #98842A",
"3  c #978A2F",
"4  c #9D882A",
"5  c #928335",
"6  c #9B8734",
"7  c #978935",
"8  c #9D8C37",
"9  c #91873D",
"0  c #9F8339",
"q  c #9D8D3A",
"w  c #A78E24",
"e  c #AD8D21",
"r  c #B08F20",
"t  c #AA9127",
"y  c #AA942B",
"u  c #AD982F",
"i  c #B19122",
"p  c #BA9925",
"a  c #B3972E",
"s  c #B5992A",
"d  c #BA9D2C",
"f  c #A38C33",
"g  c #A48B3A",
"h  c #A79330",
"j  c #AE9A33",
"k  c #AC943B",
"l  c #B09B34",
"z  c #B5973E",
"x  c #B09E3C",
"c  c #BDA02E",
"v  c #BFA334",
"b  c #B3A13C",
"n  c #BCA63D",
"m  c #BFAB3E",
"M  c #C4A326",
"N  c #CDAC26",
"B  c #C0A32E",
"V  c #CEAE2B",
"C  c #CFB029",
"Z  c #D1B32C",
"A  c #C2A733",
"S  c #C6AB34",
"D  c #C9AD36",
"F  c #C2A938",
"G  c #C9AF3A",
"H  c #CFB030",
"J  c #C7B03E",
"K  c #CBB23A",
"L  c #CFB83D",
"P  c #D3B633",
"I  c #D4B835",
"U  c #D9BB34",
"Y  c #D2B63F",
"T  c #D5BC3B",
"R  c #D8BF3F",
"E  c #DAC13E",
"W  c #8D8440",
"Q  c #988E41",
"!  c #BB9E40",
"~  c #B5A642",
"^  c #B7A845",
"/  c #BBAA45",
"(  c #B3AA4E",
")  c #B9AC4A",
"_  c #BBB04E",
"`  c #A6A153",
"'  c #B3AF57",
"]  c #B8AE54",
"[  c #B4AB5D",
"{  c #BCB454",
"}  c #B4B15D",
"|  c #BFB758",
" . c #BCB85E",
".. c #BAAD60",
"X. c #BAB760",
"o. c #BDBA61",
"O. c #BAB770",
"+. c #C1A541",
"@. c #C4A942",
"#. c #CCB342",
"$. c #CCB549",
"%. c #D4BC43",
"&. c #D1BD4A",
"*. c #D8BF49",
"=. c #C1B654",
"-. c #C1BB5D",
";. c #C1BD62",
":. c #D7C043",
">. c #DAC446",
",. c #DEC947",
"<. c #DCC64A",
"1. c #DEC94B",
"2. c #DECE55",
"3. c #D2C05B",
"4. c #DAC25D",
"5. c #D8C959",
"6. c #E2CB47",
"7. c #E2CC49",
"8. c #E6D04A",
"9. c #EBD44A",
"0. c #F7DE4E",
"q. c #E0CE53",
"w. c #E0CE5A",
"e. c #E3D155",
"r. c #E4D55B",
"t. c #E8D759",
"y. c #E9DA5D",
"u. c #CAC664",
"i. c #D7CD68",
"p. c #DFCB6F",
"a. c #E6DA61",
"s. c #E8DC63",
"d. c #E3D36E",
"f. c #EADE69",
"g. c #E0CD71",
"h. c #E3D67D",
"j. c #EDE164",
"k. c #ECE36C",
"l. c #F1E56B",
"z. c #F5EB6D",
"x. c #EBE572",
"c. c #EFE873",
"v. c #F2EC76",
"b. c #F0E57B",
"n. c #F2EE7A",
"m. c #F3F07E",
"M. c #FAF67E",
"N. c #E6D683",
"B. c #E6E786",
"V. c #EEE584",
"C. c #E8E987",
"Z. c #EFEE89",
"A. c #F5F381",
"S. c #F9F985",
"D. c #F9F98C",
"F. c #E8E69C",
"G. c #F9F590",
"H. c #F9F993",
"J. c #F9F998",
/* pixels */
"                                                                ",
"                          J.D.D.D.D.H.H.                        ",
"                    H.D.S.S.S.S.S.S.S.S.S.S.H.                  ",
"                                                                ",
"        C.C.C.B.B.B.B.B.B.B.B.B.B.B.B.B.B.B.B.B.B.B.            ",
"      Z.S.S.S.S.S.S.S.S.S.S.S.S.S.S.S.S.S.S.S.S.S.S.S.          ",
"    F.M.A.A.A.A.A.A.A.A.A.A.A.A.A.A.A.A.A.A.A.m.A.A.A.m.        ",
"    m.m.m.m.m.m.n.m.m.m.n.Z.n.A.m.m.n.A.A.n.A.Z.n.m.m.m.m.      ",
"  A.M.S.M.M.M.M.M.M.n.n.n.n.n.n.M.M.M.M.M.M.M.M.M.M.M.M.M.G.    ",
"O.{ } ' } } } } } u.n.n.v.v.v.x. .o.;.;.;.X.o.} X.o.} } } '     ",
"                    v.v.v.x.v.u.                                ",
"    z.z.t.6.7.6.8.  x.k.l.k.v.-.  7 O X 5 5 . *.5 $ 9.7.j.z.l.  ",
"  V.a.s.#.>.>.>.2.  k.k.k.k.v.|   0.5 ; 0.f o ; 8 * 6.%.*.j.j.  ",
"  f.s.2.G <.>.>.1.  f.f.f.f.l.|   9.0 : 8.g : ; = > 6.>.K 5.( b.",
"  a.a.&.D ,.>.>.1.  f.s.a.s.j.{   8.g g 6.z g @.@ g ,.,.S &.{ i.",
"  r.a.G D <.>.>.<.  a.a.a.a.j.{   7./ ! 6.@./ 6.z ! ,.,.D / # ` ",
"  e.y.F S ,.,.:.<.  r.r.r.y.s._   7.,.,.>.>.<.>.<.<.>.<.S n 9 { ",
"  e.e.F A <.>.>.<.  r.r.r.r.y.)   7.>.>.>.<.>.>.>.>.>.<.B m Q { ",
"  2.e.J d ,.>.>.<.  e.e.e.e.t.^   6.>.>.>.>.>.>.>.>.>.<.s k 9 ] ",
"  w.1.%.i >.>.>.<.  2.e.2.2.t.^   6.>.>.>.>.>.>.>.>.<.%.r ! : [ ",
"  d.,.<.e %.,.>.<.  2.2.2.1.e.^   6.>.>.>.>.>.>.>.>.,.S w ) m h.",
"    >.1.d d <.>.<.  <.1.1.<.7.b   7.>.>.>.>.>.>.>.>.,.t A q 5   ",
"    <.:.%.< >.,.<.  <.<.<.>.6.b   7.<.>.>.>.>.>.>.<.D < %.L 3.  ",
"    h.R ,.c d <.<.  :.>.>.>.,.x   7.<.>.>.>.>.>.>.>.< v & 3     ",
"      >.T R i A 7.  %.:.:.E 6.l   6.>.>.>.>.>.<.>.i s n % [     ",
"        P R T 1 A   R R T R E j   6.>.>.>.>.<.>.t p f + b       ",
"        g.Z I I d   T T T T R u   6.,.>.<.<.L r p : u 2         ",
"          p.Z P *.  P I P I U y   8.<.>.K i , s 4 s y           ",
"            4.Z %.  P P P P U y   S s < 1 N a - s h             ",
"                    C Z V Z U t   M M V H 4 Z e $.              ",
"                    G C V C Z w   U V N N w Y                   ",
"                        #.D V w   P P Y 4.                      "
};
