/* XPM */
static char *e432cc1ba5694a0ac093cce365082650[] = {
/* columns rows colors chars-per-pixel */
"16 16 164 2 ",
"   c None",
".  c #555433",
"X  c #6D5E2A",
"o  c #7C6D2C",
"O  c #6D6A3A",
"+  c #767240",
"@  c #8B7A30",
"#  c #9A8324",
"$  c #9A8834",
"%  c #9C8238",
"&  c #9B8E3F",
"*  c #A08723",
"=  c #AB9125",
"-  c #AE962E",
";  c #BA9B21",
":  c #B4992B",
">  c #B99D2B",
",  c #B89F2F",
"<  c #BC9F2D",
"1  c #A08B32",
"2  c #A68D3A",
"3  c #A79133",
"4  c #A99631",
"5  c #AC9839",
"6  c #B19830",
"7  c #BAA335",
"8  c #B8A037",
"9  c #BBA03E",
"0  c #BDA83C",
"q  c #C1A52F",
"w  c #C5A92F",
"e  c #C8A829",
"r  c #CEB12B",
"t  c #D1B22C",
"y  c #D5B62F",
"u  c #C2A530",
"i  c #C2A732",
"p  c #C4AE3F",
"a  c #CCB037",
"s  c #CAB139",
"d  c #CFB63C",
"f  c #D0B132",
"g  c #D2B730",
"h  c #D6B631",
"j  c #D0B63A",
"k  c #D0B73C",
"l  c #D5BA39",
"z  c #D1B93E",
"x  c #D1B93F",
"c  c #D4B83E",
"v  c #D8BC38",
"b  c #8A8441",
"n  c #8E8742",
"m  c #AE9E42",
"M  c #AF9F43",
"N  c #A09749",
"B  c #A99E4D",
"V  c #AFA044",
"C  c #ABA048",
"Z  c #AAA14B",
"A  c #B2A245",
"S  c #BEAA4C",
"D  c #AEA25B",
"F  c #B0A851",
"G  c #B5AE54",
"H  c #B6B15B",
"J  c #BBB358",
"K  c #BCB35B",
"L  c #BFB25D",
"P  c #C0AD42",
"I  c #C6AE42",
"U  c #C5AE4C",
"Y  c #C3B349",
"T  c #CEB44A",
"R  c #D1BB40",
"E  c #D3BB41",
"W  c #D5BE41",
"Q  c #D3BE47",
"!  c #D6BF45",
"~  c #C6B850",
"^  c #C9BE57",
"/  c #D6C040",
"(  c #D8C040",
")  c #DAC241",
"_  c #DBC241",
"`  c #D8C145",
"'  c #DAC244",
"]  c #DAC344",
"[  c #D8C246",
"{  c #DAC246",
"}  c #DBC445",
"|  c #DBC545",
" . c #DAC446",
".. c #DBC546",
"X. c #DAC547",
"o. c #DBC547",
"O. c #DCC445",
"+. c #DCC647",
"@. c #DEC747",
"#. c #DCC748",
"$. c #DFC848",
"%. c #DCC84B",
"&. c #DAC84E",
"*. c #DCC84D",
"=. c #DECB4F",
"-. c #CCC25D",
";. c #DDCB50",
":. c #DEC952",
">. c #DFCF53",
",. c #DFCD54",
"<. c #E0C947",
"1. c #E1CA46",
"2. c #E2CF4F",
"3. c #E1D257",
"4. c #E5D557",
"5. c #E1D058",
"6. c #E3D35A",
"7. c #E5D85F",
"8. c #E8DB5E",
"9. c #D0C964",
"0. c #E5D761",
"q. c #E8DC61",
"w. c #E9DD67",
"e. c #E0DA6E",
"r. c #E1CE73",
"t. c #E7D976",
"y. c #ECE066",
"u. c #ECE46E",
"i. c #F0E66E",
"p. c #EEEA74",
"a. c #EFEC77",
"s. c #EEEB7B",
"d. c #EFEC7B",
"f. c #EFEC7C",
"g. c #F0EA75",
"h. c #F3EC75",
"j. c #F2EE7B",
"k. c #F3EF7B",
"l. c #F3F07D",
"z. c #F6F27D",
"x. c #F6F27E",
"c. c #F9F57E",
"v. c #EDE583",
"b. c #EEE484",
"n. c #EAEB82",
"m. c #EAEA83",
"M. c #EAEA84",
"N. c #EBEB84",
"B. c #EAEA85",
"V. c #EBEB8B",
"C. c #EEEB8C",
"Z. c #F7F681",
"A. c #F6F582",
"S. c #F6F483",
"D. c #F6F583",
"F. c #F6F687",
"G. c #F9F782",
"H. c #FAF980",
"J. c #F7F589",
"K. c #F7F688",
"L. c #F7F68B",
"P. c #ECEB97",
"I. c #F7F690",
"U. c #F7F695",
/* pixels */
"                                ",
"            I.K.F.L.U.          ",
"        V.n.m.B.B.M.m.N.        ",
"  P.H.G.A.S.S.D.D.D.D.D.Z.J.    ",
"  p.s.f.d.j.j.k.z.c.x.l.l.a.C.  ",
"  H F C J g.h.e.+ . O n b Z G   ",
"  q.[ ) 6.u.i.9.& o $ X @ W >.v.",
"b.&.z } 5.w.y.-.A 9 I 2 % ] p K ",
"0.Q d ..,.7.8.^ V O.` { ! | 8 N ",
"t.R s +.;.3.4.~ M 1.....+.' 6 B ",
"  / i +.*.=.2.Y M <. . .#.j - L ",
"  :.w x %.X.$.P m <. .o...< 4   ",
"    g q E ( _ 0 m <.#.+.u # D   ",
"    r.r a l v 7 m @.k > * 5     ",
"        c t y , 1 e ; = S       ",
"          U f : 3 h T           "
};
